<?xml version="1.0" encoding="UTF-8" standalone="no"?> <svg xmlns="http://www.w3.org/2000/svg" viewBox="0 0 64 64"><g id="Layer_14" data-name="Layer 14"><path d="M60,40.12a2.5,2.5,0,0,1-1.89-.88,4.48,4.48,0,0,0-6.42,0,2.49,2.49,0,0,1-3.77,0,4.45,4.45,0,0,0-6.41,0,2.49,2.49,0,0,1-3.77,0,4.43,4.43,0,0,0-3.21-1.37,4.33,4.33,0,0,0-1.53.26V19.05H60a1,1,0,0,0,0-2H46.25v-2.9c0-7.8-10.48-10.48-14.25-3.76-3.81-6.76-14.25-4-14.25,3.76v2.9H4a1,1,0,0,0,0,2H17.75V39.56A4.56,4.56,0,0,0,11,39.25a2.48,2.48,0,0,1-3.76,0A4.45,4.45,0,0,0,4,37.88a1,1,0,0,0,0,2,2.45,2.45,0,0,1,1.88.87,4.46,4.46,0,0,0,6.41,0,2.48,2.48,0,0,1,3.77,0,4.47,4.47,0,0,0,6.41,0,2.48,2.48,0,0,1,3.77,0,4.47,4.47,0,0,0,6.41,0,2.48,2.48,0,0,1,3.77,0,4.47,4.47,0,0,0,6.41,0,2.48,2.48,0,0,1,3.77,0,4.47,4.47,0,0,0,6.41,0,2.49,2.49,0,0,1,3.78,0A4.43,4.43,0,0,0,60,42.12,1,1,0,0,0,60,40.12ZM31,27.69H19.75V23.48H31Zm-11.25,2H31V33.9H19.75ZM38.62,8.52a5.65,5.65,0,0,1,5.63,5.63v2.9H33v-2.9A5.63,5.63,0,0,1,38.62,8.52ZM19.75,14.15c.24-7.45,11-7.43,11.25,0v2.9H19.75ZM31,19.05v2.43H19.75V19.05Zm-3.44,20.2a4.46,4.46,0,0,0-6.41,0,2.84,2.84,0,0,1-1.4.81V35.9H31v3.62A2.45,2.45,0,0,1,27.56,39.25Z"/><path d="M60,47.8a2.5,2.5,0,0,1-1.89-.88,4.47,4.47,0,0,0-6.42,0,2.48,2.48,0,0,1-3.77,0,4.46,4.46,0,0,0-6.41,0,2.48,2.48,0,0,1-3.77,0,4.43,4.43,0,0,0-3.21-1.36,4.37,4.37,0,0,0-3.2,1.37,2.48,2.48,0,0,1-3.77,0,4.45,4.45,0,0,0-6.41,0,2.49,2.49,0,0,1-3.77,0,4.46,4.46,0,0,0-6.41,0,2.48,2.48,0,0,1-3.76,0A4.41,4.41,0,0,0,4,45.56a1,1,0,0,0,0,2,2.47,2.47,0,0,1,1.88.87,4.46,4.46,0,0,0,6.41,0,2.48,2.48,0,0,1,3.77,0,4.47,4.47,0,0,0,6.41,0,2.48,2.48,0,0,1,3.77,0,4.48,4.48,0,0,0,6.41,0,2.48,2.48,0,0,1,3.77,0,4.48,4.48,0,0,0,6.41,0,2.48,2.48,0,0,1,3.77,0,4.47,4.47,0,0,0,6.41,0,2.49,2.49,0,0,1,3.78,0A4.43,4.43,0,0,0,60,49.8,1,1,0,0,0,60,47.8Z"/><path d="M60,55.48a2.5,2.5,0,0,1-1.89-.88,4.47,4.47,0,0,0-6.42,0,2.48,2.48,0,0,1-3.77,0,4.46,4.46,0,0,0-6.41,0,2.48,2.48,0,0,1-3.77,0,4.46,4.46,0,0,0-6.41,0,2.46,2.46,0,0,1-3.77,0,4.47,4.47,0,0,0-6.41,0,2.48,2.48,0,0,1-3.77,0,4.47,4.47,0,0,0-6.41,0,2.47,2.47,0,0,1-3.76,0A4.49,4.49,0,0,0,4,53.24a1,1,0,0,0,0,2,2.45,2.45,0,0,1,1.88.87,4.46,4.46,0,0,0,6.41,0,2.48,2.48,0,0,1,3.77,0,4.47,4.47,0,0,0,6.41,0,2.48,2.48,0,0,1,3.77,0,4.48,4.48,0,0,0,6.41,0,2.48,2.48,0,0,1,3.77,0,4.48,4.48,0,0,0,6.41,0,2.48,2.48,0,0,1,3.77,0,4.47,4.47,0,0,0,6.41,0,2.49,2.49,0,0,1,3.78,0A4.43,4.43,0,0,0,60,57.48,1,1,0,0,0,60,55.48Z"/></g></svg>