<?xml version="1.0" encoding="UTF-8" standalone="no"?> <svg xmlns="http://www.w3.org/2000/svg" viewBox="0 0 64 64"><g id="Layer_8" data-name="Layer 8"><path d="M60,21H56.16a1,1,0,0,0-1,1v3.47H53.1V22a1,1,0,0,0-1-1H48.26a1,1,0,0,0-1,1v6H44.15V14a1,1,0,0,0-1-1H40.39V10.89L48.93,8a1,1,0,0,0,0-1.89L39.7,3.05a1,1,0,0,0-1.22.54c-.25,2.09,0,7.35-.09,9.41H36.15a1,1,0,0,0-1,1v5.43h-6.3V14a1,1,0,0,0-1-1H25.24V10.89L33.78,8a1,1,0,0,0,0-1.89L24.56,3.05a1,1,0,0,0-1.23.54c-.25,2.09,0,7.35-.09,9.41H20.85a1,1,0,0,0-1,1V28H16.74V22a1,1,0,0,0-1-1H11.9a1,1,0,0,0-1,1v3.47H8.84V22a1,1,0,0,0-1-1H4a1,1,0,0,0-1,1V60a1,1,0,0,0,1,1H60a1,1,0,0,0,1-1V22A1,1,0,0,0,60,21ZM40.39,8.78V5.39l5.07,1.69Zm-15.15,0V5.39l5.07,1.69ZM32,41.8a6.68,6.68,0,0,0-6.68,6.67V59H16.74V35.89H47.26V59H38.68V48.47A6.68,6.68,0,0,0,32,41.8ZM21.85,15h5v5.43a1,1,0,0,0,1,1h8.3a1,1,0,0,0,1-1V15h5V28H21.85ZM47.26,30v3.89H16.74V30ZM5,23H6.84v3.47a1,1,0,0,0,1,1H11.9a1,1,0,0,0,1-1V23h1.84V59H5ZM27.32,59V48.47a4.68,4.68,0,0,1,9.36,0V59ZM59,59H49.26V23H51.1v3.47a1,1,0,0,0,1,1h4.06a1,1,0,0,0,1-1V23H59Z"/></g></svg>