<?xml version="1.0" encoding="UTF-8"?>
<!DOCTYPE svg PUBLIC "-//W3C//DTD SVG 1.1//EN" "http://www.w3.org/Graphics/SVG/1.1/DTD/svg11.dtd">
<!-- Creator: CorelDRAW -->
<svg xmlns="http://www.w3.org/2000/svg" xml:space="preserve" width="1.70666in" height="1.70666in" version="1.1" style="shape-rendering:geometricPrecision; text-rendering:geometricPrecision; image-rendering:optimizeQuality; fill-rule:evenodd; clip-rule:evenodd"
viewBox="0 0 1707 1707"
 xmlns:xlink="http://www.w3.org/1999/xlink">
 <defs>
  <style type="text/css">
   <![CDATA[
    .fil0 {fill:black}
   ]]>
  </style>
 </defs>
 <g id="Layer_x0020_1">
  <metadata id="CorelCorpID_0Corel-Layer"/>
  <path class="fil0" d="M1020 910c-28,0 -40,-34 -20,-53l126 -111 -123 -157c-10,-14 -8,-34 7,-43l168 -112 -339 -178c-30,21 -244,173 -257,177l-170 46 160 160c8,8 11,19 8,29l-60 226c-11,38 -68,23 -58,-15l55 -210 -147 -147 -80 312c-3,9 -8,16 -16,19l-126 60 -82 543 451 0 88 -338c1,-5 4,-9 7,-13l246 -256c14,-14 37,-11 47,4l131 203 130 0c17,0 30,13 30,30l0 370 445 0 -70 -499 -168 -109c-5,-3 -8,-7 -11,-12l-168 -361 -154 102 120 155c10,12 8,30 -4,41l-146 129c-6,5 -13,8 -20,8zm227 -507c11,4 15,11 19,21l177 379 172 112c7,5 12,12 13,21l77 546c2,18 -11,33 -29,33 -548,0 -1097,0 -1645,0 -18,0 -32,-16 -29,-34l90 -592c1,-10 7,-19 16,-23l127 -60 90 -350c3,-10 11,-18 21,-21l215 -58 259 -180c9,-7 21,-7 31,-2l396 208zm-668 1053l557 0 0 -340 -116 0c-10,0 -20,-5 -25,-14l-120 -184 -214 223 -82 315z"/>
 </g>
</svg>
