<?xml version="1.0" encoding="UTF-8" standalone="no"?> <svg width="64" height="64" viewBox="0 0 64 64" fill="none" xmlns="http://www.w3.org/2000/svg">
<path d="M3.00001 55C3.18147 55 3.3595 54.9505 3.51501 54.857L4.39501 54.327C5.48827 53.6742 6.70808 53.2618 7.9732 53.1173C9.23832 52.9728 10.5197 53.0995 11.732 53.489C11.984 53.573 12.2589 53.5534 12.4965 53.4346C12.734 53.3158 12.9146 53.1075 12.9985 52.8555C13.0825 52.6036 13.0629 52.3286 12.9441 52.0911C12.8253 51.8536 12.617 51.673 12.365 51.589C10.8785 51.1095 9.30673 50.9526 7.75473 51.1288C6.20272 51.3051 4.70618 51.8104 3.36501 52.611L2.48501 53.141C2.29671 53.2533 2.1505 53.4243 2.06888 53.6277C1.98726 53.8311 1.97475 54.0558 2.03328 54.267C2.0918 54.4783 2.21811 54.6644 2.39278 54.7969C2.56746 54.9293 2.78081 55.0007 3.00001 55V55Z" fill="black"/>
<path d="M44.151 53.627C46.6352 54.547 49.3668 54.547 51.851 53.627C53.1115 53.1483 54.4643 52.9626 55.8072 53.0839C57.15 53.2051 58.4477 53.6302 59.602 54.327L60.482 54.857C60.7093 54.9938 60.9816 55.0348 61.2391 54.9708C61.4966 54.9069 61.7182 54.7433 61.855 54.516C61.9919 54.2887 62.0328 54.0163 61.9689 53.7589C61.9049 53.5014 61.7413 53.2798 61.514 53.143L60.633 52.613C59.2208 51.7601 57.6332 51.2395 55.9902 51.0903C54.3471 50.9411 52.6917 51.1674 51.149 51.752C49.1162 52.5035 46.8818 52.5035 44.849 51.752L43.843 51.37C41.3593 50.447 38.6267 50.447 36.143 51.37L35.149 51.747C34.96 51.818 34.767 51.875 34.574 51.933C32.3039 48.4529 28.9551 45.8133 25.041 44.419C26.8047 39.7103 27.9513 34.7931 28.452 29.79C28.596 29.9 28.736 30.016 28.889 30.118C29.0798 30.2448 29.3083 30.3023 29.5364 30.2808C29.7645 30.2593 29.9783 30.1602 30.142 30C31.0258 29.1436 31.7564 28.1421 32.302 27.039L32.396 27.259C32.4625 27.4166 32.5683 27.5545 32.7032 27.6595C32.8382 27.7646 32.9979 27.8333 33.167 27.859C33.3087 27.8824 33.4538 27.8744 33.592 27.8355C33.7303 27.7966 33.8583 27.7278 33.967 27.634L34.29 31.55C34.2995 31.657 34.3255 31.7619 34.367 31.861L36.333 36.461C36.4096 36.6402 36.5369 36.7932 36.6993 36.901C36.8617 37.0089 37.0521 37.0669 37.247 37.068H37.253C37.4473 37.0677 37.6373 37.0108 37.7998 36.9042C37.9623 36.7977 38.0903 36.6461 38.168 36.468L38.697 35.268C39.7178 32.9558 40.2283 30.4509 40.1938 27.9237C40.1592 25.3965 39.5805 22.9064 38.497 20.623C38.467 20.559 38.428 20.502 38.397 20.439L39.615 21.153C39.811 21.268 40.0403 21.3128 40.2651 21.2801C40.4899 21.2474 40.6969 21.1391 40.852 20.973L41.23 20.567L43.665 23.467C43.7385 23.5546 43.8264 23.6291 43.925 23.687L48.245 26.217C48.4133 26.316 48.6069 26.3635 48.8019 26.3538C48.9969 26.344 49.1848 26.2774 49.3423 26.1621C49.4999 26.0469 49.6203 25.888 49.6887 25.7051C49.757 25.5222 49.7704 25.3233 49.727 25.133L49.438 23.857C48.7211 20.6187 47.0984 17.651 44.759 15.3C44.6664 15.2069 44.5563 15.1329 44.4351 15.0824C44.3138 15.0318 44.1838 15.0056 44.0525 15.0053C43.9211 15.005 43.791 15.0305 43.6695 15.0805C43.5481 15.1304 43.4376 15.2038 43.3445 15.2965C43.1565 15.4836 43.0505 15.7377 43.0498 16.003C43.0495 16.1344 43.075 16.2645 43.125 16.386C43.175 16.5074 43.2484 16.6179 43.341 16.711C45.1686 18.547 46.5059 20.8127 47.23 23.3L45.084 22.043L42.035 18.416C41.944 18.3078 41.8311 18.2201 41.7037 18.1587C41.5763 18.0974 41.4374 18.0637 41.296 18.06C41.1543 18.0535 41.0129 18.0784 40.8821 18.1331C40.7512 18.1877 40.634 18.2707 40.539 18.376L39.939 19.022L35.9 16.66C35.89 16.654 35.879 16.653 35.869 16.647C34.2812 14.8124 32.3301 13.3271 30.139 12.285C33.6913 11.7854 37.307 12.5328 40.37 14.4C40.4822 14.4682 40.6068 14.5137 40.7366 14.5337C40.8663 14.5538 40.9988 14.5482 41.1264 14.517C41.254 14.4859 41.3742 14.43 41.4802 14.3524C41.5861 14.2749 41.6758 14.1772 41.744 14.065C41.8122 13.9528 41.8577 13.8282 41.8778 13.6984C41.8978 13.5687 41.8922 13.4362 41.8611 13.3086C41.83 13.181 41.774 13.0608 41.6965 12.9548C41.6189 12.8489 41.5212 12.7592 41.409 12.691C39.2279 11.3629 36.7835 10.5265 34.246 10.24L34.618 9.49498H39C39.0816 9.49455 39.1628 9.48448 39.242 9.46498L43.242 8.46498C43.4219 8.42004 43.5857 8.32596 43.7152 8.19327C43.8448 8.06058 43.9348 7.8945 43.9754 7.71357C44.0159 7.53265 44.0054 7.34401 43.9449 7.16873C43.8845 6.99345 43.7765 6.83843 43.633 6.72098C42.266 5.59956 40.6676 4.79476 38.9526 4.3644C37.2377 3.93405 35.4487 3.8888 33.7141 4.23192C31.9796 4.57504 30.3426 5.29801 28.9206 6.34891C27.4987 7.3998 26.3271 8.75255 25.49 10.31C24.2357 9.77598 22.9236 9.38972 21.58 9.15898C21.5805 9.11723 21.5785 9.07549 21.574 9.03398L21.028 6.86498C20.9828 6.68483 20.8883 6.52084 20.7551 6.39137C20.622 6.26191 20.4554 6.17209 20.274 6.13198L15.512 5.08098L13.979 4.31698C15.7629 3.86276 17.6374 3.90857 19.397 4.44941C21.1566 4.99025 22.7332 6.00521 23.954 7.38298C24.1298 7.58189 24.3775 7.70281 24.6425 7.71912C24.9075 7.73544 25.1681 7.64582 25.367 7.46998C25.5659 7.29414 25.6868 7.04649 25.7031 6.7815C25.7195 6.51651 25.6298 6.25589 25.454 6.05698C23.6928 4.06881 21.3226 2.71997 18.7138 2.22119C16.105 1.7224 13.4044 2.10175 11.034 3.29998C10.8687 3.38378 10.7299 3.51188 10.6331 3.66998C10.5363 3.82808 10.4854 4.00997 10.4861 4.19533C10.4867 4.38069 10.5388 4.56223 10.6366 4.71968C10.7344 4.87714 10.8741 5.0043 11.04 5.08698L14.73 6.92598C14.803 6.96275 14.8802 6.99029 14.96 7.00798L19.24 7.95198L19.486 8.93098C17.377 8.81228 15.2639 9.07481 13.248 9.70598C10.9317 10.4287 8.79236 11.6285 6.96789 13.2282C5.14343 14.8279 3.67426 16.792 2.655 18.994L2.095 20.184C2.02323 20.3364 1.99113 20.5045 2.00169 20.6727C2.01225 20.8408 2.06513 21.0036 2.15541 21.1458C2.24569 21.2881 2.37045 21.4052 2.5181 21.4864C2.66576 21.5675 2.83152 21.61 3 21.61C3.10452 21.6099 3.2084 21.5937 3.308 21.562L8.067 20.021C8.17546 19.9862 8.277 19.9328 8.367 19.863L11.374 17.563L11.659 18.044C11.7748 18.2391 11.9535 18.389 12.1657 18.4691C12.378 18.5493 12.6112 18.5549 12.827 18.485L14.192 18.044C13.2794 19.1798 12.5122 20.4251 11.908 21.751C11.8506 21.871 11.8177 22.0013 11.8112 22.1342C11.8048 22.267 11.8249 22.3999 11.8704 22.5249C11.916 22.6499 11.986 22.7646 12.0764 22.8622C12.1668 22.9598 12.2758 23.0384 12.3969 23.0934C12.5181 23.1483 12.649 23.1785 12.782 23.1823C12.915 23.186 13.0474 23.1631 13.1715 23.1151C13.2955 23.067 13.4087 22.9946 13.5045 22.9022C13.6002 22.8098 13.6765 22.6993 13.729 22.577C14.7456 20.3516 16.2688 18.395 18.1767 16.8635C20.0847 15.332 22.3244 14.2682 24.717 13.757C24.68 13.882 24.634 14.004 24.6 14.13L22.17 17.515L21.362 16.937C21.2235 16.8377 21.062 16.7755 20.8927 16.7561C20.7235 16.7368 20.5521 16.7611 20.3948 16.8266C20.2375 16.8921 20.0996 16.9967 19.9941 17.1305C19.8886 17.2643 19.819 17.4228 19.792 17.591L19.12 21.779L17.872 23.52L17.585 22.975C17.4929 22.8 17.351 22.6562 17.1772 22.5618C17.0034 22.4674 16.8055 22.4267 16.6085 22.4448C16.4116 22.4629 16.2244 22.5389 16.0707 22.6634C15.917 22.7879 15.8037 22.9551 15.745 23.144L13.923 29.03L12.472 31.058C12.2496 29.4287 12.2905 27.7743 12.593 26.158C12.6173 26.0289 12.6159 25.8963 12.589 25.7677C12.562 25.6392 12.51 25.5172 12.4359 25.4087C12.3618 25.3003 12.2671 25.2075 12.1571 25.1356C12.0471 25.0638 11.9241 25.0143 11.795 24.99C11.6659 24.9657 11.5333 24.9671 11.4047 24.994C11.2762 25.021 11.1542 25.073 11.0457 25.1471C10.9373 25.2212 10.8445 25.3159 10.7726 25.4259C10.7008 25.5359 10.6513 25.6589 10.627 25.788C10.2147 27.9946 10.2327 30.2602 10.68 32.46L10.939 33.75C10.9774 33.9412 11.0708 34.1169 11.2078 34.2557C11.3448 34.3945 11.5193 34.4901 11.71 34.531C11.7791 34.5452 11.8495 34.5525 11.92 34.553C12.0791 34.5528 12.2358 34.5147 12.3772 34.4419C12.5186 34.369 12.6406 34.2634 12.733 34.134L15.644 30.065C15.7061 29.9779 15.7537 29.8813 15.785 29.779L16.946 26.03C17.0413 26.1538 17.1644 26.2536 17.3052 26.3213C17.4461 26.389 17.6008 26.4227 17.7571 26.4198C17.9133 26.4169 18.0667 26.3774 18.2049 26.3045C18.3431 26.2316 18.4624 26.1273 18.553 26L20.883 22.75C20.9729 22.6243 21.0325 22.4795 21.057 22.327L21.511 19.501L21.628 19.585C20.5892 28.1595 17.3929 36.3305 12.338 43.334C9.18513 43.7752 6.11265 44.6701 3.216 45.991L2.585 46.278C2.4655 46.3325 2.3579 46.41 2.26835 46.5061C2.1788 46.6021 2.10905 46.7149 2.06309 46.838C2.01712 46.961 1.99584 47.0919 2.00046 47.2231C2.00508 47.3544 2.0355 47.4835 2.09 47.603C2.1445 47.7225 2.222 47.8301 2.31809 47.9196C2.41417 48.0092 2.52695 48.0789 2.64998 48.1249C2.77302 48.1709 2.90391 48.1921 3.03517 48.1875C3.16643 48.1829 3.2955 48.1525 3.415 48.098L4.045 47.811C8.11035 45.9515 12.5296 44.9926 17 45C23.309 45 29.177 47.827 32.409 52.3C31.1996 52.358 29.991 52.1719 28.855 51.753L27.848 51.371C25.3644 50.4477 22.6316 50.4477 20.148 51.371L19.157 51.747C18.141 52.1228 17.0663 52.3155 15.983 52.316C15.7178 52.316 15.4634 52.4213 15.2759 52.6089C15.0884 52.7964 14.983 53.0508 14.983 53.316C14.983 53.5812 15.0884 53.8356 15.2759 54.0231C15.4634 54.2106 15.7178 54.316 15.983 54.316C17.3059 54.3139 18.618 54.0769 19.858 53.616L20.851 53.239C22.8832 52.4843 25.1188 52.4843 27.151 53.239L28.158 53.621C30.6418 54.5432 33.3742 54.5432 35.858 53.621L36.852 53.244C38.884 52.488 41.12 52.488 43.152 53.244L44.151 53.627ZM19.767 34.216L22.804 34.449H22.882C23.0133 34.454 23.1443 34.433 23.2676 34.3874C23.3908 34.3418 23.5039 34.2723 23.6002 34.183C23.6966 34.0936 23.7745 33.9862 23.8293 33.8668C23.8842 33.7474 23.915 33.6183 23.92 33.487C23.925 33.3557 23.9041 33.2246 23.8584 33.1014C23.8128 32.9782 23.7433 32.8651 23.654 32.7687C23.5646 32.6724 23.4572 32.5945 23.3378 32.5396C23.2184 32.4848 23.0893 32.454 22.958 32.449L20.552 32.264C20.9313 31.264 21.2793 30.254 21.596 29.234L26.454 29.676C26.1622 32.5901 25.6426 35.477 24.9 38.31L18.276 37.427C18.8087 36.373 19.3057 35.3026 19.767 34.216ZM22.684 25.192L25.484 25.53C25.7145 26.2892 26.0511 27.012 26.484 27.677L22.165 27.284C22.356 26.591 22.525 25.893 22.684 25.192V25.192ZM29.331 27.945C28.0619 26.842 27.275 25.2859 27.139 23.61L27.026 22.264L28.832 19.555C28.9325 19.4044 28.9902 19.2293 28.999 19.0485C29.0078 18.8677 28.9673 18.6878 28.8819 18.5282C28.7965 18.3686 28.6693 18.2351 28.514 18.1421C28.3587 18.0491 28.181 18 28 18H26.011C26.0759 16.4583 26.3726 14.9353 26.891 13.482C28.1098 14.3873 29.1322 15.5306 29.8962 16.8427C30.6603 18.1547 31.1501 19.6081 31.336 21.115C31.495 22.3303 31.3989 23.5654 31.0537 24.7414C30.7084 25.9174 30.1217 27.0085 29.331 27.945ZM36.688 21.479C37.5736 23.3475 38.079 25.3735 38.1746 27.4391C38.2702 29.5046 37.9542 31.5686 37.245 33.511L36.266 31.221L35.758 25.079C35.7414 24.8822 35.6669 24.6948 35.5439 24.5403C35.421 24.3858 35.255 24.2712 35.067 24.2109C34.879 24.1506 34.6774 24.1473 34.4875 24.2014C34.2976 24.2555 34.128 24.3646 34 24.515L33.6 24.987L33.229 24.122C33.4125 23.0541 33.4444 21.9658 33.324 20.889C33.0788 18.8251 32.3392 16.8509 31.168 15.134C33.5545 16.7034 35.464 18.8982 36.688 21.479V21.479ZM33.788 6.25798C36.0653 5.7242 38.458 6.01289 40.543 7.07298L38.876 7.48998H34C33.8134 7.48887 33.6303 7.53998 33.4712 7.63753C33.3122 7.73508 33.1836 7.87517 33.1 8.04198L32.1 10.042C32.085 10.073 32.087 10.106 32.075 10.142C30.5184 10.1622 28.9714 10.3898 27.475 10.819C28.1654 9.67217 29.0807 8.6769 30.1658 7.89307C31.2509 7.10924 32.4833 6.55305 33.789 6.25798H33.788ZM12.52 15.57C12.4479 15.4485 12.3508 15.3438 12.2353 15.2626C12.1197 15.1813 11.9882 15.1255 11.8496 15.0988C11.7109 15.0721 11.5681 15.075 11.4306 15.1074C11.2932 15.1399 11.1641 15.2011 11.052 15.287L7.288 18.171L4.927 18.935C6.83826 15.4279 10.039 12.802 13.852 11.613C17.1594 10.5746 20.7181 10.6643 23.969 11.868C21.6012 12.4231 19.3736 13.4615 17.426 14.918C17.3851 14.9201 17.3443 14.9248 17.304 14.932L12.973 16.332L12.52 15.57ZM25 20H26.131L25.168 21.445C25.0425 21.6329 24.9843 21.8578 25.003 22.083L25.12 23.472L23.089 23.227C23.365 21.753 23.5793 20.267 23.732 18.769L24.017 18.369C24.017 18.585 23.996 18.8 24 19.018C24.0047 19.2801 24.1122 19.5298 24.2992 19.7135C24.4862 19.8971 24.7379 20 25 20ZM14.962 43.067C15.784 41.845 16.5507 40.593 17.262 39.311L24.341 40.255C23.98 41.455 23.573 42.641 23.131 43.818C21.1326 43.275 19.0709 42.9999 17 43C16.317 43 15.639 43.026 14.962 43.067Z" fill="black"/>
<path d="M37.794 54.91C37.2331 55.0219 36.6818 55.1773 36.145 55.375L35.151 55.752C33.119 56.5079 30.883 56.5079 28.851 55.752L27.844 55.37C25.3604 54.4467 22.6276 54.4467 20.144 55.37L19.151 55.747C17.119 56.5029 14.883 56.5029 12.851 55.747C11.3053 55.1715 9.65026 54.9499 8.00761 55.0984C6.36496 55.2468 4.77648 55.7617 3.35901 56.605L2.47901 57.135C2.36647 57.2027 2.26837 57.292 2.19033 57.3977C2.11229 57.5033 2.05582 57.6233 2.02415 57.7508C1.99249 57.8783 1.98625 58.0108 2.00578 58.1407C2.02532 58.2706 2.07025 58.3954 2.13801 58.508C2.20577 58.6205 2.29504 58.7186 2.40071 58.7966C2.50638 58.8747 2.62639 58.9311 2.75389 58.9628C2.88138 58.9945 3.01387 59.0007 3.14377 58.9812C3.27368 58.9616 3.39847 58.9167 3.51101 58.849L4.39101 58.319C5.54888 57.6289 6.84695 57.2078 8.18938 57.0866C9.53181 56.9655 10.8843 57.1474 12.147 57.619C14.6308 58.5412 17.3632 58.5412 19.847 57.619L20.84 57.242C22.8722 56.4872 25.1078 56.4872 27.14 57.242L28.147 57.624C30.6308 58.5462 33.3632 58.5462 35.847 57.624L36.837 57.248C37.2738 57.0872 37.7225 56.9608 38.179 56.87C38.3081 56.8445 38.4308 56.7937 38.5403 56.7207C38.6497 56.6477 38.7436 56.5538 38.8167 56.4444C38.8898 56.335 38.9406 56.2123 38.9661 56.0833C38.9917 55.9542 38.9916 55.8214 38.9657 55.6924C38.9399 55.5634 38.8888 55.4408 38.8155 55.3316C38.7422 55.2224 38.648 55.1287 38.5384 55.0559C38.4288 54.9831 38.306 54.9327 38.1769 54.9075C38.0477 54.8822 37.9149 54.8827 37.786 54.909L37.794 54.91Z" fill="black"/>
<path d="M61.516 57.143L60.635 56.613C59.2228 55.7601 57.6352 55.2394 55.9922 55.0903C54.3492 54.9411 52.6937 55.1674 51.151 55.752C49.1183 56.5035 46.8838 56.5035 44.851 55.752L43.851 55.371C43.3222 55.1709 42.7768 55.0179 42.221 54.914C41.9633 54.8727 41.6996 54.9338 41.4863 55.0843C41.2731 55.2348 41.1271 55.4627 41.0796 55.7193C41.032 55.976 41.0867 56.241 41.232 56.4579C41.3773 56.6748 41.6016 56.8262 41.857 56.88C42.2957 56.9629 42.7264 57.084 43.144 57.242L44.15 57.624C46.6342 58.544 49.3658 58.544 51.85 57.624C53.1105 57.1453 54.4633 56.9596 55.8062 57.0808C57.149 57.2021 58.4467 57.6272 59.601 58.324L60.481 58.854C60.5936 58.9217 60.7183 58.9667 60.8483 58.9862C60.9782 59.0057 61.1106 58.9995 61.2381 58.9678C61.3656 58.9362 61.4856 58.8797 61.5913 58.8016C61.697 58.7236 61.7863 58.6255 61.854 58.513C61.9218 58.4004 61.9667 58.2756 61.9862 58.1457C62.0058 58.0158 61.9995 57.8833 61.9679 57.7558C61.9362 57.6283 61.8797 57.5083 61.8017 57.4027C61.7237 57.297 61.6256 57.2077 61.513 57.14L61.516 57.143Z" fill="black"/>
</svg>
