<?xml version="1.0" encoding="utf-8"?>
<!-- Generator: Adobe Illustrator 18.1.1, SVG Export Plug-In . SVG Version: 6.00 Build 0)  -->
<svg version="1.1" xmlns="http://www.w3.org/2000/svg" xmlns:xlink="http://www.w3.org/1999/xlink" x="0px" y="0px"
	 viewBox="0 0 32 32" enable-background="new 0 0 32 32" xml:space="preserve">
<g id="Guides">
</g>
<g id="_x32_0">
</g>
<g id="_x31_9">
</g>
<g id="_x31_8">
	<path d="M19.78125,12.375c-0.0908203-0.1123047-0.2050781-0.2050781-0.3339844-0.2695313l-6-3
		c-0.28125-0.140625-0.6132813-0.140625-0.8945313,0l-6,3C6.4233398,12.1699219,6.3095703,12.2626953,6.2192383,12.375l-4,5
		c-0.3452148,0.4316406-0.2753906,1.0605469,0.15625,1.40625c0.4296875,0.3447266,1.0605469,0.2744141,1.4052734-0.15625
		l3.862793-4.8291016L13,11.1181641l5.3564453,2.6777344L22.21875,18.625C22.4169922,18.8720703,22.7070313,19,23.0009766,19
		c0.21875,0,0.4394531-0.0712891,0.6240234-0.21875c0.4306641-0.3457031,0.5009766-0.9746094,0.15625-1.40625L19.78125,12.375z"/>
	<path d="M29.0009766,9c-0.3232422,0-0.640625-0.15625-0.8330078-0.4453125l-1.828125-2.7412109L22,4.0771484l-4.3398438,1.7363281
		l-1.828125,2.7412109c-0.3061523,0.4589844-0.9282227,0.5820313-1.3867188,0.2773438
		c-0.4594727-0.3066406-0.5834961-0.9267578-0.2773438-1.3867188l2-3c0.1123047-0.1679688,0.2729492-0.2988281,0.4604492-0.3740234
		l5.0004883-2c0.2382813-0.0957031,0.5039063-0.0957031,0.7421875,0l5,2
		c0.1884766,0.0751953,0.3486328,0.2060547,0.4609375,0.3740234l2,3c0.3066406,0.4599609,0.1826172,1.0800781-0.2773438,1.3867188
		C29.3837891,8.9453125,29.1914063,9,29.0009766,9z"/>
	<path d="M21,23h-6c-0.5522461,0-1,0.4472656-1,1v2h-2v-2c0-0.5527344-0.4477539-1-1-1H5c-0.5522461,0-1,0.4472656-1,1v5
		c0,0.5527344,0.4477539,1,1,1s1-0.4472656,1-1v-1h4v1c0,0.5527344,0.4477539,1,1,1s1-0.4472656,1-1v-1h2v1
		c0,0.5527344,0.4477539,1,1,1s1-0.4472656,1-1v-1h4v1c0,0.5527344,0.4472656,1,1,1s1-0.4472656,1-1v-5
		C22,23.4472656,21.5527344,23,21,23z M6,26v-1h1v1H6z M9,26v-1h1v1H9z M16,26v-1h1v1H16z M19,26v-1h1v1H19z"/>
	<path d="M17.7128906,14.5917969L13,12.2363281l-4.7128906,2.3554688L4,20v2h7v-2c0-0.5523071,0.4476929-1,1-1h2
		c0.5523071,0,1,0.4476929,1,1v2h7v-2L17.7128906,14.5917969z"/>
	<path d="M27,12h-3c-0.5527344,0-1,0.4472656-1,1v1.7972412c0,0,1.6754761,2.1172485,1.7240601,2.2027588H26
		c0,0.5527344,0.4472656,1,1,1s1-0.4472656,1-1v-4C28,12.4472656,27.5527344,12,27,12z M26,15h-1v-1h1V15z"/>
	<path d="M25.6796875,6.6269531L22,5.1542969l-3.6796875,1.4726563c0,0-1.3912964,1.9897461-2.0310669,2.781311L19.4726563,11H20v-1
		c0-0.5523071,0.4476929-1,1-1h2c0.5523071,0,1,0.4476929,1,1v1h4V9.7244263
		C27.7391357,9.5730591,25.6796875,6.6269531,25.6796875,6.6269531z"/>
</g>
<g id="_x31_7">
</g>
<g id="_x31_6">
</g>
<g id="_x31_5">
</g>
<g id="_x31_4">
</g>
<g id="_x31_3">
</g>
<g id="_x31_2">
</g>
<g id="_x31_1">
</g>
<g id="_x31_0">
</g>
<g id="_x30_9">
</g>
<g id="_x30_8">
</g>
<g id="_x30_7">
</g>
<g id="_x30_6">
</g>
<g id="_x30_5">
</g>
<g id="_x30_4">
</g>
<g id="_x30_3">
</g>
<g id="_x30_2">
</g>
<g id="_x30_1">
</g>
</svg>
