<?xml version="1.0" encoding="UTF-8" standalone="no"?> <svg width="512" height="512" viewBox="0 0 512 512" fill="none" xmlns="http://www.w3.org/2000/svg">
<path d="M463.589 253.471C462.918 251.458 461.475 249.794 459.578 248.846C457.68 247.897 455.483 247.74 453.47 248.411L434.481 254.741C433.703 251.884 432.808 249.07 431.796 246.298L457.94 239.762C459.985 239.235 461.739 237.921 462.819 236.107C463.899 234.292 464.218 232.124 463.706 230.075C463.194 228.026 461.892 226.263 460.085 225.17C458.278 224.077 456.112 223.743 454.06 224.24L425.114 231.477C424.029 229.498 422.862 227.567 421.654 225.66L458.105 215.719C460.143 215.153 461.874 213.803 462.919 211.964C463.964 210.125 464.238 207.947 463.681 205.906C463.125 203.866 461.783 202.128 459.949 201.075C458.115 200.021 455.938 199.736 453.895 200.283L411.319 211.895C409.95 210.353 408.519 208.863 407.056 207.395L443.249 191.31C445.188 190.448 446.705 188.851 447.467 186.871C448.228 184.89 448.172 182.688 447.31 180.749C446.448 178.81 444.851 177.293 442.871 176.531C440.89 175.77 438.688 175.826 436.749 176.688L393.529 195.898C391.148 194.198 388.697 192.611 386.195 191.118L420.65 166.511C421.505 165.901 422.231 165.127 422.787 164.236C423.344 163.345 423.719 162.353 423.891 161.316C424.064 160.28 424.031 159.22 423.794 158.196C423.557 157.173 423.121 156.206 422.51 155.351C421.899 154.496 421.126 153.77 420.235 153.214C419.344 152.658 418.352 152.283 417.315 152.11C416.279 151.937 415.219 151.97 414.195 152.207C413.172 152.444 412.205 152.881 411.35 153.491L369.816 183.158C368.396 182.611 366.963 182.095 365.516 181.61L390.371 148.835C391.653 147.144 392.211 145.014 391.922 142.912C391.633 140.809 390.521 138.908 388.83 137.626C387.139 136.344 385.009 135.786 382.906 136.075C380.804 136.364 378.903 137.476 377.621 139.167L348.615 177.417C346.142 177.017 343.656 176.677 341.151 176.448L358.78 148.241C359.905 146.442 360.268 144.27 359.791 142.202C359.314 140.135 358.035 138.342 356.236 137.217C354.437 136.093 352.265 135.729 350.197 136.206C348.13 136.683 346.337 137.962 345.212 139.761L327.979 167.333C327.848 161.327 326.031 155.479 322.735 150.456C319.44 145.433 314.798 141.438 309.34 138.927C312.415 135.189 315.569 131.53 318.8 127.948L355.232 129.77C355.369 129.776 355.503 129.779 355.639 129.779C357.726 129.777 359.729 128.96 361.221 127.502C362.714 126.044 363.578 124.061 363.629 121.975C363.68 119.889 362.914 117.866 361.495 116.337C360.076 114.808 358.115 113.893 356.031 113.789L333.478 112.661C337.007 109.221 340.61 105.867 344.289 102.598L373.44 107.918C375.523 108.29 377.669 107.821 379.408 106.614C381.146 105.407 382.335 103.56 382.715 101.479C383.095 99.3967 382.634 97.2491 381.434 95.506C380.234 93.7629 378.392 92.5663 376.312 92.1782L360.3 89.2552C363.154 87.0292 366.043 84.8509 368.968 82.7202L397.193 88.3652C399.268 88.768 401.418 88.3332 403.174 87.1556C404.93 85.9781 406.148 84.1536 406.562 82.0808C406.977 80.008 406.554 77.8554 405.387 76.0932C404.219 74.331 402.402 73.1025 400.331 72.6762L387.6 70.1292C389.608 68.8719 391.632 67.6385 393.672 66.4292L423.696 70.9762C424.096 71.0362 424.499 71.0663 424.903 71.0662C426.921 71.0657 428.865 70.3024 430.344 68.9292C431.823 67.556 432.729 65.6745 432.879 63.6619C433.029 61.6492 432.413 59.6541 431.154 58.0765C429.896 56.4989 428.087 55.4554 426.091 55.1552L417.031 53.7832C420.977 51.8499 424.965 49.9949 428.994 48.2182L443.578 51.1352C444.098 51.2389 444.626 51.2915 445.156 51.2922C446.586 51.2904 447.989 50.905 449.22 50.1762C450.45 49.4474 451.463 48.4019 452.151 47.1487C452.84 45.8955 453.18 44.4805 453.136 43.0511C453.092 41.6218 452.665 40.2304 451.9 39.0222C453.638 38.0364 454.944 36.4359 455.562 34.5355C456.179 32.6351 456.063 30.5724 455.236 28.7533C454.41 26.9342 452.932 25.4903 451.094 24.7058C449.257 23.9213 447.192 23.853 445.306 24.5142C443.545 25.1429 441.791 25.7869 440.045 26.4462L440.187 25.8462C440.435 24.8219 440.479 23.7586 440.315 22.7175C440.151 21.6763 439.783 20.6778 439.232 19.7793C438.682 18.8807 437.959 18.0999 437.105 17.4817C436.251 16.8635 435.284 16.42 434.258 16.1768C433.233 15.9336 432.169 15.8955 431.129 16.0645C430.089 16.2336 429.092 16.6066 428.196 17.162C427.301 17.7175 426.524 18.4444 425.91 19.3012C425.296 20.1579 424.857 21.1275 424.619 22.1542L421.84 33.8902C416.739 36.1482 411.706 38.5279 406.74 41.0292L411.051 29.1522C411.416 28.1634 411.581 27.1123 411.538 26.0594C411.495 25.0065 411.245 23.9724 410.801 23.0165C410.357 22.0607 409.729 21.202 408.952 20.4897C408.176 19.7774 407.266 19.2255 406.275 18.8658C405.285 18.5061 404.233 18.3457 403.18 18.3937C402.127 18.4418 401.095 18.6973 400.141 19.1457C399.187 19.5941 398.332 20.2264 397.623 21.0065C396.914 21.7866 396.367 22.6989 396.012 23.6912L385.484 52.6832C383.617 53.7952 381.761 54.9242 379.914 56.0702L382.577 44.8412C383.067 42.7766 382.716 40.6021 381.602 38.796C380.489 36.99 378.703 35.7003 376.639 35.2107C374.574 34.7211 372.4 35.0717 370.593 36.1854C368.787 37.2991 367.498 39.0846 367.008 41.1492L360.356 69.2012C358.269 70.7105 356.197 72.2409 354.14 73.7922L356.474 62.4792C356.902 60.4007 356.487 58.2373 355.32 56.4649C354.153 54.6925 352.33 53.4563 350.251 53.0282C348.173 52.6001 346.009 53.0153 344.237 54.1823C342.464 55.3494 341.228 57.1727 340.8 59.2512L334.477 89.9072C332.965 91.2405 331.465 92.5899 329.977 93.9552L332.827 81.9342C333.075 80.9099 333.119 79.8466 332.955 78.8055C332.791 77.7643 332.423 76.7658 331.872 75.8673C331.322 74.9687 330.599 74.1879 329.745 73.5697C328.891 72.9515 327.924 72.508 326.898 72.2648C325.873 72.0216 324.809 71.9835 323.769 72.1525C322.729 72.3216 321.732 72.6946 320.836 73.25C319.941 73.8055 319.163 74.5324 318.55 75.3892C317.936 76.2459 317.497 77.2155 317.259 78.2422L308.406 115.577C302.309 122.265 296.468 129.212 290.885 136.416C286.239 137.173 281.817 138.945 277.935 141.606C278.42 137.222 278.974 132.853 279.635 128.506L300.135 116.106C301.034 115.562 301.817 114.847 302.439 114C303.062 113.154 303.511 112.193 303.762 111.173C304.013 110.153 304.061 109.093 303.903 108.055C303.744 107.016 303.383 106.019 302.839 105.12C302.295 104.221 301.58 103.438 300.733 102.816C299.887 102.194 298.926 101.744 297.906 101.493C296.886 101.242 295.826 101.194 294.788 101.353C293.749 101.511 292.752 101.872 291.853 102.416L283.562 107.432C283.746 106.596 283.912 105.755 284.103 104.921L308.416 90.0012C310.224 88.8914 311.518 87.1087 312.012 85.0452C312.506 82.9818 312.16 80.8066 311.05 78.9982C309.94 77.1898 308.158 75.8964 306.094 75.4024C304.031 74.9084 301.855 75.2544 300.047 76.3642L290.13 82.4502C290.83 80.1702 291.561 77.8992 292.311 75.6342L314.185 62.2102C315.993 61.1003 317.287 59.3174 317.781 57.2539C318.275 55.1903 317.929 53.0151 316.819 51.2067C315.709 49.3983 313.926 48.1049 311.862 47.611C309.799 47.1172 307.623 47.4633 305.815 48.5732L301.5 51.2262C301.847 50.4082 302.2 49.5922 302.553 48.7762L315.214 41.0012C316.549 40.1837 317.615 38.992 318.279 37.5741C318.943 36.1562 319.175 34.5746 318.948 33.0256C318.721 31.4766 318.044 30.0284 317.001 28.8609C315.958 27.6934 314.595 26.8579 313.081 26.4582C313.685 24.5535 313.555 22.4918 312.715 20.6785C311.876 18.8653 310.388 17.4318 308.545 16.6602C306.702 15.8886 304.636 15.8347 302.755 16.509C300.875 17.1834 299.314 18.5372 298.381 20.3042C297.515 21.9682 296.687 23.6452 295.85 25.3202L295.535 24.7632C295.018 23.8489 294.325 23.0454 293.497 22.3987C292.669 21.752 291.722 21.2747 290.709 20.9941C289.697 20.7135 288.639 20.635 287.596 20.7632C286.554 20.8914 285.546 21.2237 284.632 21.7412C283.718 22.2587 282.914 22.9512 282.268 23.7791C281.621 24.6071 281.144 25.5544 280.863 26.5668C280.582 27.5793 280.504 28.6371 280.632 29.6798C280.76 30.7226 281.093 31.7299 281.61 32.6442L287.549 43.1362C286.047 46.6242 284.608 50.1329 283.233 53.6622L274.967 39.0622C274.456 38.1364 273.766 37.3212 272.938 36.6636C272.109 36.0061 271.159 35.5194 270.141 35.2316C269.123 34.9437 268.059 34.8606 267.009 34.9868C265.959 35.1131 264.944 35.4463 264.024 35.9672C263.103 36.4881 262.295 37.1864 261.646 38.0215C260.998 38.8567 260.521 39.8122 260.244 40.8328C259.966 41.8535 259.894 42.9189 260.032 43.9676C260.169 45.0162 260.513 46.0273 261.043 46.9422L276.143 73.6192C275.55 75.4692 274.974 77.3232 274.413 79.1812L268.1 68.0332C267.055 66.1866 265.319 64.8308 263.274 64.2641C261.23 63.6974 259.044 63.9661 257.197 65.0112C255.35 66.0563 253.995 67.7921 253.428 69.8368C252.861 71.8815 253.13 74.0676 254.175 75.9142L268.527 101.273C268.167 102.848 267.843 104.433 267.505 106.014L258.12 94.8622C256.745 93.2703 254.798 92.2841 252.701 92.1172C250.604 91.9502 248.525 92.6161 246.916 93.9704C245.306 95.3248 244.295 97.2587 244.1 99.3534C243.906 101.448 244.545 103.535 245.878 105.162L263.766 126.418C263.192 130.218 262.7 134.044 262.254 137.877C256.351 130.179 250.133 122.754 243.6 115.601L234.742 78.2422C234.244 76.187 232.952 74.4128 231.149 73.3074C229.346 72.202 227.179 71.8554 225.121 72.3434C223.064 72.8313 221.283 74.1142 220.168 75.9114C219.054 77.7087 218.696 79.8741 219.174 81.9342L222.03 94.0012C220.543 92.6412 219.043 91.2945 217.53 89.9612L211.2 59.2512C210.992 58.2183 210.582 57.2368 209.993 56.3628C209.405 55.4889 208.649 54.7399 207.77 54.1587C206.892 53.5775 205.907 53.1757 204.872 52.9762C203.837 52.7768 202.774 52.7837 201.742 52.9965C200.71 53.2094 199.73 53.624 198.859 54.2165C197.988 54.809 197.242 55.5678 196.665 56.4493C196.088 57.3307 195.69 58.3176 195.496 59.353C195.301 60.3885 195.313 61.4523 195.53 62.4832L197.879 73.8692C195.822 72.3092 193.75 70.7732 191.661 69.2612L184.996 41.1492C184.754 40.1269 184.312 39.1624 183.697 38.3107C183.082 37.459 182.305 36.7368 181.411 36.1854C180.516 35.634 179.522 35.2641 178.485 35.0968C177.448 34.9296 176.388 34.9683 175.366 35.2107C174.343 35.4531 173.379 35.8945 172.527 36.5097C171.675 37.1249 170.953 37.9018 170.402 38.796C169.85 39.6903 169.48 40.6845 169.313 41.7217C169.146 42.7589 169.185 43.8189 169.427 44.8412L172.1 56.1082C170.407 55.0535 168.707 54.0125 167 52.9852L160.264 24.5762C159.766 22.521 158.474 20.7468 156.671 19.6414C154.868 18.536 152.701 18.1894 150.643 18.6774C148.586 19.1653 146.805 20.4482 145.69 22.2454C144.576 24.0427 144.218 26.2081 144.696 28.2682L148.062 42.4682C142.187 39.4422 136.224 36.5879 130.172 33.9052L127.387 22.1572C127.149 21.1305 126.71 20.1609 126.097 19.3042C125.483 18.4474 124.706 17.7205 123.81 17.165C122.914 16.6096 121.917 16.2366 120.877 16.0675C119.837 15.8985 118.773 15.9366 117.748 16.1798C116.722 16.423 115.755 16.8665 114.901 17.4847C114.048 18.1029 113.325 18.8837 112.774 19.7823C112.223 20.6808 111.855 21.6793 111.691 22.7205C111.527 23.7616 111.571 24.8249 111.819 25.8492L111.962 26.4542C110.213 25.7962 108.462 25.1452 106.7 24.5162C104.814 23.8531 102.749 23.92 100.91 24.7036C99.0712 25.4872 97.5923 26.9308 96.7645 28.7501C95.9368 30.5695 95.82 32.6328 96.4374 34.534C97.0547 36.4351 98.3613 38.0362 100.1 39.0222C99.3344 40.2308 98.9071 41.6228 98.8629 43.0529C98.8186 44.483 99.159 45.8987 99.8484 47.1524C100.538 48.4061 101.551 49.4517 102.783 50.1803C104.014 50.9088 105.418 51.2935 106.849 51.2942C107.379 51.2935 107.907 51.2409 108.427 51.1372L122.983 48.2252C127.583 50.2512 132.134 52.3775 136.635 54.6042L128.542 56.2232C127.51 56.4268 126.527 56.8322 125.652 57.416C124.776 57.9999 124.024 58.7508 123.439 59.6257C122.854 60.5006 122.448 61.4824 122.243 62.5147C122.038 63.547 122.039 64.6096 122.245 65.6415C122.452 66.6735 122.86 67.6546 123.446 68.5286C124.032 69.4026 124.785 70.1524 125.662 70.7349C126.539 71.3174 127.521 71.7212 128.554 71.9233C129.587 72.1253 130.65 72.1215 131.681 71.9122L158.495 66.5482C160.465 67.7255 162.423 68.9215 164.368 70.1362L151.668 72.6762C150.633 72.8771 149.648 73.2807 148.769 73.8637C147.891 74.4467 147.136 75.1976 146.549 76.0732C145.961 76.9489 145.553 77.932 145.347 78.966C145.141 80.0001 145.141 81.0647 145.348 82.0986C145.555 83.1325 145.964 84.1154 146.552 84.9906C147.14 85.8659 147.895 86.6162 148.774 87.1986C149.653 87.781 150.638 88.1839 151.674 88.3841C152.709 88.5843 153.773 88.5779 154.806 88.3652L182.976 82.7312C185.622 84.6562 188.25 86.6092 190.841 88.6162C191.441 89.0842 192.041 89.5662 192.641 90.0382L175.23 94.2742C173.168 94.7757 171.39 96.0757 170.287 97.8881C169.184 99.7006 168.846 101.877 169.348 103.939C169.849 106 171.149 107.778 172.962 108.882C174.774 109.985 176.95 110.323 179.012 109.821L207.888 102.796C211.664 106.157 215.359 109.601 218.973 113.127L197.735 114.801C195.676 114.964 193.759 115.918 192.387 117.462C191.014 119.007 190.293 121.022 190.373 123.086C190.453 125.151 191.329 127.104 192.817 128.538C194.304 129.971 196.289 130.773 198.355 130.776C198.566 130.776 198.78 130.769 198.994 130.752L233.294 128.044C240.635 136.206 247.555 144.736 254.03 153.601C248.935 155.283 244.342 158.214 240.671 162.126C237 166.039 234.367 170.809 233.013 176.001H229.434L206.784 139.761C205.66 137.962 203.866 136.683 201.799 136.206C199.732 135.729 197.559 136.093 195.76 137.217C193.961 138.342 192.682 140.135 192.205 142.202C191.728 144.27 192.092 146.442 193.216 148.241L210.845 176.448C208.345 176.677 205.854 177.013 203.381 177.417L174.375 139.167C173.093 137.476 171.192 136.364 169.09 136.075C166.988 135.786 164.857 136.344 163.166 137.626C161.475 138.908 160.363 140.809 160.074 142.912C159.785 145.014 160.343 147.144 161.625 148.835L186.48 181.61C185.037 182.096 183.604 182.612 182.18 183.158L140.65 153.491C138.924 152.258 136.778 151.761 134.685 152.11C132.592 152.459 130.723 153.625 129.49 155.351C128.257 157.078 127.76 159.224 128.109 161.316C128.458 163.409 129.624 165.278 131.35 166.511L165.8 191.12C163.3 192.613 160.848 194.199 158.467 195.9L115.246 176.69C113.307 175.828 111.105 175.772 109.125 176.533C107.144 177.295 105.547 178.812 104.685 180.751C103.823 182.69 103.767 184.892 104.528 186.873C105.29 188.853 106.807 190.45 108.746 191.312L144.945 207.401C143.483 208.867 142.05 210.358 140.681 211.901L98.1051 200.283C96.0619 199.736 93.8852 200.021 92.0513 201.075C90.2173 202.128 88.8753 203.866 88.3187 205.906C87.7622 207.947 88.0364 210.125 89.0814 211.964C90.1264 213.803 91.8572 215.153 93.8951 215.719L130.346 225.66C129.138 227.567 127.971 229.498 126.886 231.477L97.9401 224.24C95.8877 223.743 93.7219 224.077 91.9149 225.17C90.108 226.263 88.8066 228.026 88.2944 230.075C87.7823 232.124 88.101 234.292 89.1811 236.107C90.2612 237.921 92.015 239.235 94.0601 239.762L120.2 246.301C119.192 249.073 118.297 251.887 117.515 254.744L98.5301 248.411C96.5171 247.74 94.32 247.896 92.4221 248.845C90.5243 249.794 89.0811 251.458 88.4101 253.471C87.7391 255.484 87.8952 257.681 88.8442 259.579C89.7931 261.477 91.4571 262.92 93.4701 263.591L114.409 270.57L113.65 275.882L107.578 272.846C105.683 271.917 103.497 271.774 101.497 272.449C99.4969 273.125 97.8448 274.563 96.9007 276.451C95.9565 278.339 95.7969 280.524 96.4565 282.529C97.1161 284.534 98.5415 286.197 100.422 287.156L116.422 295.156C116.43 295.156 116.437 295.156 116.444 295.164C117.577 295.728 118.828 296.015 120.094 296.002C121.36 295.988 122.604 295.673 123.725 295.084C124.845 294.496 125.81 293.649 126.539 292.614C127.268 291.58 127.741 290.386 127.919 289.133L130.658 269.965C133.75 248.327 144.542 228.53 161.055 214.208C177.568 199.887 198.692 192.002 220.55 192.001H233.013C234.14 196.323 236.155 200.363 238.931 203.862C241.706 207.362 245.181 210.244 249.133 212.325C232.448 283.975 224.016 357.298 224 430.865V480.001H176C173.878 480.001 171.844 480.844 170.343 482.344C168.843 483.845 168 485.879 168 488.001C168 490.123 168.843 492.158 170.343 493.658C171.844 495.158 173.878 496.001 176 496.001H376C378.122 496.001 380.157 495.158 381.657 493.658C383.157 492.158 384 490.123 384 488.001C384 485.879 383.157 483.845 381.657 482.344C380.157 480.844 378.122 480.001 376 480.001H363.7C365.91 476.187 367.306 471.956 367.802 467.576C368.298 463.196 367.882 458.76 366.581 454.548C365.28 450.336 363.122 446.439 360.243 443.101C357.363 439.763 353.824 437.057 349.848 435.153C352.833 433.095 356.374 431.996 360 432.001C362.122 432.001 364.157 431.158 365.657 429.658C367.157 428.158 368 426.123 368 424.001C368 421.879 367.157 419.845 365.657 418.344C364.157 416.844 362.122 416.001 360 416.001C351.931 415.977 344.121 418.846 337.986 424.088C334.716 419.572 329.949 416.365 324.534 415.039C319.119 413.712 313.409 414.353 308.422 416.846C306.541 417.805 305.116 419.468 304.456 421.474C303.797 423.479 303.957 425.663 304.901 427.551C305.845 429.439 307.497 430.878 309.497 431.553C311.497 432.228 313.683 432.086 315.578 431.156C317.242 430.325 319.156 430.141 320.948 430.64C322.74 431.139 324.283 432.285 325.278 433.856C320.855 435.425 316.832 437.949 313.494 441.249C310.156 444.548 307.586 448.542 305.966 452.947C304.346 457.352 303.716 462.059 304.12 466.735C304.524 471.411 305.953 475.94 308.305 480.001H287.628L285.061 426.09C281.732 355.923 286.205 285.604 298.4 216.424L301.38 199.539C307.23 198.541 312.685 195.93 317.132 192.001H331.45C353.309 192 374.434 199.885 390.947 214.206C407.46 228.528 418.252 248.326 421.342 269.965L424.081 289.133C424.258 290.388 424.732 291.582 425.461 292.617C426.191 293.653 427.157 294.5 428.279 295.088C429.4 295.677 430.646 295.99 431.913 296.003C433.18 296.015 434.431 295.726 435.564 295.159H435.578L451.578 287.159C452.526 286.694 453.373 286.046 454.069 285.253C454.765 284.459 455.298 283.536 455.636 282.535C455.973 281.535 456.11 280.478 456.037 279.424C455.964 278.371 455.683 277.343 455.211 276.398C454.739 275.454 454.084 274.612 453.285 273.922C452.486 273.232 451.559 272.707 450.556 272.377C449.553 272.047 448.494 271.919 447.442 272C446.389 272.081 445.363 272.37 444.422 272.849L438.35 275.885L437.591 270.573L458.53 263.594C459.527 263.262 460.449 262.736 461.243 262.048C462.037 261.359 462.687 260.521 463.157 259.581C463.627 258.641 463.907 257.617 463.981 256.569C464.055 255.521 463.922 254.468 463.589 253.471ZM240 432.001H269.324L270.086 448.001H240V432.001ZM283.388 209.436L282.646 213.643C282.037 217.091 281.463 220.543 280.892 224.001H262.884C263.484 221.326 264.092 218.653 264.709 215.983C271.473 215.842 278.016 213.548 283.388 209.436ZM259.435 240.001H278.372C277.584 245.327 276.846 250.661 276.158 256.001H256.3C257.3 250.659 258.345 245.326 259.435 240.001ZM274.209 272.001C273.602 277.329 273.039 282.663 272.522 288.001H250.867C251.682 282.66 252.541 277.327 253.445 272.001H274.209ZM248.563 304.001H271.1C270.672 309.335 270.284 314.668 269.937 320.001H246.529C247.158 314.663 247.836 309.329 248.563 304.001ZM241.188 384.001C241.455 378.668 241.765 373.335 242.118 368.001H268.105C268.033 373.335 268.002 378.668 268.013 384.001H241.188ZM269.067 336.001C268.817 341.335 268.614 346.668 268.457 352.001H243.313C243.76 346.665 244.248 341.331 244.776 336.001H269.067ZM240.524 400.001H268.178C268.283 405.335 268.437 410.668 268.638 416.001H240.125C240.209 410.668 240.342 405.335 240.524 400.001ZM264 168.001C267.165 168.001 270.258 168.94 272.889 170.698C275.52 172.456 277.571 174.955 278.782 177.878C279.993 180.802 280.31 184.019 279.693 187.123C279.075 190.226 277.551 193.077 275.314 195.315C273.076 197.553 270.225 199.076 267.122 199.694C264.018 200.311 260.801 199.994 257.877 198.783C254.954 197.572 252.455 195.522 250.697 192.89C248.938 190.259 248 187.166 248 184.001C248.005 179.759 249.692 175.693 252.692 172.693C255.691 169.694 259.758 168.006 264 168.001V168.001ZM320 464.001C320 460.837 320.938 457.743 322.697 455.112C324.455 452.481 326.954 450.43 329.877 449.219C332.801 448.008 336.018 447.691 339.122 448.309C342.225 448.926 345.076 450.45 347.314 452.687C349.551 454.925 351.075 457.776 351.693 460.88C352.31 463.983 351.993 467.2 350.782 470.124C349.571 473.048 347.52 475.547 344.889 477.305C342.258 479.063 339.165 480.001 336 480.001C331.758 479.996 327.691 478.309 324.692 475.309C321.692 472.31 320.005 468.243 320 464.001ZM240 480.001V464.001H270.848L271.61 480.001H240ZM296.443 183.979C296.303 183.946 296.165 183.907 296.021 183.879H295.997C295.978 178.934 294.812 174.061 292.591 169.644C290.37 165.226 287.154 161.383 283.197 158.418C284.819 156.249 286.965 154.527 289.434 153.414C291.904 152.301 294.615 151.833 297.315 152.055C300.014 152.276 302.613 153.18 304.868 154.681C307.122 156.182 308.959 158.231 310.205 160.636C311.451 163.041 312.066 165.723 311.992 168.431C311.918 171.138 311.157 173.783 309.781 176.116C308.406 178.449 306.46 180.394 304.127 181.77C301.793 183.145 299.149 183.905 296.441 183.979H296.443Z" fill="black"/>
</svg>
